<svg xmlns="http://www.w3.org/2000/svg" width="134" height="134"><circle cx="67" cy="67" r="65" fill="#d2d2d2"/><path d="M67 2c35.841 0 65 29.159 65 65s-29.159 65-65 65S2 102.841 2 67 31.159 2 67 2m0-1C30.55 1 1 30.55 1 67s29.55 66 66 66 66-29.55 66-66S103.45 1 67 1z" fill="#0c0d0d" opacity=".2"/><path d="M65.92 66.34h2.16c14.802.421 30.928 6.062 29.283 20.349l-1.618 13.322c-.844 6.814-5.208 7.827-13.972 7.865H52.23c-8.765-.038-13.13-1.05-13.974-7.865l-1.62-13.322C34.994 72.402 51.12 66.761 65.92 66.341zM49.432 43.934c0-9.819 7.989-17.81 17.807-17.81 9.822 0 17.81 7.991 17.81 17.81 0 9.819-7.988 17.807-17.81 17.807-9.818 0-17.807-7.988-17.807-17.807z" fill="#666e6e"/></svg>
